<?xml version="1.0" standalone="no"?>
<!DOCTYPE svg PUBLIC "-//W3C//DTD SVG 20010904//EN"
 "http://www.w3.org/TR/2001/REC-SVG-20010904/DTD/svg10.dtd">
<svg version="1.0" xmlns="http://www.w3.org/2000/svg"
 width="500.000000pt" height="500.000000pt" viewBox="0 0 500.000000 500.000000"
 preserveAspectRatio="xMidYMid meet">

<g transform="translate(0.000000,500.000000) scale(0.100000,-0.100000)"
fill="#000000" stroke="none">
<path d="M1970 3570 c0 -5 5 -10 10 -10 6 0 10 5 10 10 0 6 -4 10 -10 10 -5 0
-10 -4 -10 -10z"/>
<path d="M1766 3421 c-4 -5 -2 -12 3 -15 5 -4 12 -2 15 3 4 5 2 12 -3 15 -5 4
-12 2 -15 -3z"/>
<path d="M1970 3420 c0 -5 5 -10 10 -10 6 0 10 5 10 10 0 6 -4 10 -10 10 -5 0
-10 -4 -10 -10z"/>
<path d="M2096 3421 c-4 -5 -2 -12 3 -15 5 -4 12 -2 15 3 4 5 2 12 -3 15 -5 4
-12 2 -15 -3z"/>
<path d="M2195 3290 c-4 -6 -3 -16 3 -22 6 -6 12 -6 17 2 4 6 3 16 -3 22 -6 6
-12 6 -17 -2z"/>
<path d="M1980 3280 c0 -5 5 -10 10 -10 6 0 10 5 10 10 0 6 -4 10 -10 10 -5 0
-10 -4 -10 -10z"/>
<path d="M1677 3203 c-3 -5 -2 -15 2 -22 7 -10 10 -10 16 -1 4 6 3 16 -3 22
-5 5 -12 6 -15 1z"/>
<path d="M1800 3191 c0 -6 5 -13 10 -16 6 -3 10 1 10 9 0 9 -4 16 -10 16 -5 0
-10 -4 -10 -9z"/>
<path d="M2049 3169 l-24 -20 28 17 c15 9 27 18 27 20 0 8 -8 4 -31 -17z"/>
<path d="M1926 3164 c-9 -8 -16 -21 -16 -27 0 -6 7 -1 16 11 29 41 68 24 80
-36 9 -46 -18 -53 -57 -16 -17 16 -27 22 -24 14 10 -22 65 -63 88 -65 11 -1
31 -15 44 -31 12 -16 23 -23 23 -16 0 8 10 12 26 10 54 -6 58 51 5 78 -19 10
-20 12 -6 24 19 16 16 62 -5 68 -13 5 -13 3 -2 -11 20 -24 7 -49 -38 -75 -45
-25 -54 -14 -14 17 15 12 23 21 19 21 -5 0 -17 -8 -28 -17 -19 -17 -20 -17
-15 5 4 12 2 20 -3 16 -5 -3 -9 -1 -9 5 0 16 -30 41 -50 41 -10 0 -26 -7 -34
-16z m204 -99 c21 -25 8 -50 -27 -50 -17 0 -29 3 -27 7 3 4 -4 12 -15 18 -12
6 -18 16 -15 25 8 19 68 20 84 0z"/>
<path d="M2277 3096 c-3 -8 -2 -18 3 -21 13 -8 20 9 11 24 -6 10 -10 9 -14 -3z"/>
<path d="M1870 3080 c0 -5 5 -10 10 -10 6 0 10 5 10 10 0 6 -4 10 -10 10 -5 0
-10 -4 -10 -10z"/>
<path d="M1904 3038 c-19 -23 -19 -23 1 -7 11 9 27 19 35 22 13 5 13 6 -1 6
-9 1 -24 -9 -35 -21z"/>
<path d="M1977 2997 l-18 -32 21 21 c13 12 21 27 19 33 -2 6 -12 -4 -22 -22z"/>
<path d="M2206 3021 c-4 -5 -2 -12 3 -15 5 -4 12 -2 15 3 4 5 2 12 -3 15 -5 4
-12 2 -15 -3z"/>
<path d="M1726 3011 c-4 -5 -2 -12 3 -15 5 -4 12 -2 15 3 4 5 2 12 -3 15 -5 4
-12 2 -15 -3z"/>
<path d="M2078 2957 c-3 -19 -2 -25 4 -19 6 6 8 18 6 28 -3 14 -5 12 -10 -9z"/>
<path d="M2001 2959 c-1 -22 24 -42 46 -36 14 4 13 5 -5 6 -13 1 -26 10 -32
24 -6 15 -9 17 -9 6z"/>
<path d="M2300 2928 c0 -9 -10 -23 -22 -32 l-23 -17 23 11 c24 12 39 36 28 47
-3 4 -6 -1 -6 -9z"/>
<path d="M2403 2925 c-10 -10 -9 -15 4 -19 22 -9 37 8 21 21 -9 8 -16 7 -25
-2z"/>
<path d="M2243 2915 c4 -5 1 -16 -7 -24 -13 -14 -12 -18 15 -33 33 -19 40 -10
8 10 -16 10 -18 16 -9 27 8 10 8 15 -2 21 -7 4 -10 3 -5 -1z"/>
<path d="M1803 2885 c-3 -9 -3 -18 -1 -21 3 -3 8 4 11 16 6 23 -1 27 -10 5z"/>
<path d="M2316 2853 c-6 -14 -5 -15 5 -6 7 7 10 15 7 18 -3 3 -9 -2 -12 -12z"/>
<path d="M1871 2843 c-1 -16 -8 -23 -23 -24 -16 -1 -18 -3 -6 -6 11 -3 16 -15
16 -40 0 -20 7 -41 16 -49 9 -8 11 -9 6 -2 -13 15 -13 75 -1 83 6 3 15 -4 21
-15 6 -11 16 -18 21 -14 6 3 2 12 -10 21 -12 8 -18 19 -15 25 4 6 2 8 -4 4 -6
-3 -12 3 -15 16 l-4 23 -2 -22z"/>
<path d="M1926 2845 c-16 -12 -17 -15 -4 -15 9 0 18 7 22 15 7 18 6 18 -18 0z"/>
<path d="M2056 2831 c-4 -5 -2 -12 3 -15 5 -4 12 -2 15 3 4 5 2 12 -3 15 -5 4
-12 2 -15 -3z"/>
<path d="M2281 2814 c0 -11 3 -14 6 -6 3 7 2 16 -1 19 -3 4 -6 -2 -5 -13z"/>
<path d="M2230 2811 c0 -6 4 -13 10 -16 6 -3 7 1 4 9 -7 18 -14 21 -14 7z"/>
<path d="M1789 2793 c-13 -16 -12 -17 4 -4 9 7 17 15 17 17 0 8 -8 3 -21 -13z"/>
<path d="M1664 2786 c-8 -8 -7 -15 0 -22 8 -8 15 -7 22 0 8 8 7 15 0 22 -8 8
-15 7 -22 0z"/>
<path d="M2515 2773 c-11 -3 -50 -18 -87 -34 -50 -22 -94 -32 -169 -39 -128
-12 -173 -32 -177 -78 -3 -27 1 -34 23 -42 14 -6 38 -10 53 -11 24 -1 24 -2
-7 -9 -33 -8 -66 -1 -127 26 -36 16 -87 20 -129 10 -16 -3 -45 -2 -62 3 -63
18 -140 -25 -99 -55 13 -9 9 -13 -24 -23 -42 -12 -82 -54 -74 -76 8 -20 37
-27 65 -17 37 14 192 6 249 -13 28 -9 58 -14 67 -11 15 6 88 -5 233 -34 120
-24 124 -24 247 18 218 75 278 77 440 12 84 -34 327 -157 408 -208 27 -17 53
-28 56 -24 4 4 9 84 12 177 l5 170 -39 3 c-90 6 -350 98 -591 208 -89 41 -113
48 -178 50 -41 2 -84 0 -95 -3z m205 -37 c30 -13 119 -51 197 -84 147 -63 365
-136 442 -148 l43 -7 -3 -148 c-2 -81 -7 -150 -10 -153 -3 -3 -50 19 -105 50
-244 136 -440 214 -535 214 -68 -1 -139 -18 -278 -66 -90 -32 -114 -37 -137
-29 -16 6 -28 15 -28 20 1 10 -91 49 -151 64 -17 4 -49 18 -70 29 -52 28 -124
59 -158 67 -33 9 -44 24 -26 36 21 13 66 11 105 -6 30 -12 34 -18 29 -37 -6
-22 -5 -22 9 -4 16 20 11 21 150 -17 52 -14 95 -32 103 -43 7 -9 16 -15 20
-11 9 10 -27 47 -46 47 -11 1 -8 6 9 16 23 14 20 14 -50 9 l-75 -6 58 26 c40
18 73 25 105 24 87 -4 231 46 274 96 12 14 25 25 30 25 11 0 51 41 45 46 -3 3
-29 -15 -60 -40 -30 -24 -67 -51 -83 -59 -35 -18 -185 -59 -191 -53 -3 3 11
21 31 41 20 19 36 41 36 48 -1 7 -20 -10 -43 -36 -33 -38 -49 -48 -68 -45 -19
2 -25 10 -27 36 -4 38 -19 42 -28 8 -6 -27 2 -49 16 -41 5 3 11 1 14 -4 8 -12
-59 -21 -110 -14 -53 7 -73 26 -53 49 21 26 57 35 168 45 79 7 119 16 160 36
78 36 97 41 171 42 47 0 80 -6 120 -23z m-869 -157 c12 -6 18 -17 15 -25 -4
-10 2 -14 17 -14 22 0 57 -15 192 -81 33 -16 65 -29 71 -29 7 0 25 -7 40 -15
l29 -15 -32 0 c-52 0 -134 25 -255 78 -62 27 -130 55 -150 62 -21 6 -38 15
-38 20 0 26 75 39 111 19z m53 -106 c58 -26 104 -49 101 -51 -2 -3 -31 3 -64
12 -63 18 -180 23 -248 11 -35 -6 -43 -5 -43 7 0 31 65 65 127 67 12 1 70 -20
127 -46z"/>
<path d="M2758 2548 c3 -23 8 -35 12 -29 8 13 2 59 -9 65 -3 3 -5 -14 -3 -36z"/>
<path d="M2742 2545 c0 -16 2 -22 5 -12 2 9 2 23 0 30 -3 6 -5 -1 -5 -18z"/>
<path d="M2356 2460 c17 -32 34 -48 34 -30 0 6 5 8 11 4 8 -4 8 0 0 15 -10 18
-40 41 -55 41 -2 0 2 -13 10 -30z"/>
<path d="M1910 2720 c-9 -6 -10 -10 -3 -10 6 0 15 5 18 10 8 12 4 12 -15 0z"/>
<path d="M2420 2138 c0 -5 16 -8 35 -8 l34 0 3 -117 c2 -66 7 -118 13 -120 6
-2 9 40 7 116 l-3 120 43 3 c27 2 11 5 -45 8 -48 3 -87 2 -87 -2z"/>
<path d="M2690 2132 c-44 -22 -60 -53 -60 -120 0 -48 4 -58 34 -88 45 -45 92
-47 137 -6 27 24 33 37 37 84 5 69 -16 114 -63 134 -43 18 -43 18 -85 -4z
m101 -31 c25 -25 29 -37 29 -83 0 -86 -42 -129 -106 -108 -71 24 -93 141 -38
201 27 30 80 25 115 -10z"/>
<path d="M3129 2146 c-9 -9 3 -256 12 -256 11 0 12 247 0 254 -4 3 -10 4 -12
2z"/>
<path d="M3290 2138 c0 -8 -20 -65 -46 -127 -25 -62 -43 -116 -40 -118 3 -3
13 11 22 31 17 35 20 36 70 36 51 0 53 -1 64 -35 6 -19 16 -35 22 -35 6 0 8 6
6 13 -3 6 -22 63 -42 124 -34 103 -56 146 -56 111z m33 -98 c10 -33 17 -62 17
-65 0 -3 -20 -5 -45 -5 -25 0 -45 3 -45 6 0 16 43 124 50 124 4 0 14 -27 23
-60z"/>
<path d="M2912 2018 c2 -69 7 -123 13 -125 6 -2 9 16 7 46 l-4 48 51 5 c63 6
91 29 91 75 0 52 -28 73 -100 73 l-61 0 3 -122z m116 96 c26 -18 30 -65 6 -88
-9 -10 -33 -16 -60 -16 l-44 0 0 60 0 60 38 0 c21 0 48 -7 60 -16z"/>
</g>
</svg>
