<?xml version="1.0" standalone="no"?>
<!DOCTYPE svg PUBLIC "-//W3C//DTD SVG 20010904//EN"
 "http://www.w3.org/TR/2001/REC-SVG-20010904/DTD/svg10.dtd">
<svg version="1.0" xmlns="http://www.w3.org/2000/svg"
 width="190.000000pt" height="168.000000pt" viewBox="0 0 190.000000 168.000000"
 preserveAspectRatio="xMidYMid meet">

<g transform="translate(0.000000,168.000000) scale(0.100000,-0.100000)"
fill="#000000" stroke="none">
<path d="M480 1609 c-84 -14 -208 -79 -272 -143 -99 -97 -156 -245 -145 -376
5 -55 44 -190 60 -206 7 -7 202 81 250 113 23 16 50 44 59 63 46 95 107 227
112 243 3 9 15 17 26 17 16 0 20 -6 20 -33 0 -19 -7 -56 -15 -83 -8 -28 -11
-52 -6 -57 20 -20 89 -7 172 32 98 46 149 53 149 21 0 -15 -20 -30 -81 -61
-45 -22 -79 -42 -78 -44 2 -1 36 5 74 15 89 24 134 25 142 4 8 -22 -6 -32 -69
-49 -31 -8 -72 -21 -90 -29 -32 -15 -29 -15 54 -10 75 6 89 4 94 -10 12 -30
-14 -43 -98 -50 -102 -8 -120 -22 -42 -31 78 -9 96 -14 91 -28 -2 -8 -46 -14
-123 -19 -65 -3 -137 -11 -159 -17 -22 -6 -64 -11 -93 -11 -58 0 -91 -14 -209
-87 -66 -41 -72 -47 -62 -66 20 -37 251 -262 369 -359 63 -52 166 -134 229
-181 l114 -86 41 29 c142 104 387 303 472 384 114 110 114 100 -8 162 -49 25
-84 35 -134 39 -36 3 -85 10 -108 17 -22 6 -87 10 -143 9 -67 -1 -103 2 -108
9 -13 21 14 34 80 38 36 2 65 8 65 12 0 5 -35 12 -77 15 -99 10 -123 19 -123
46 0 21 3 21 95 17 87 -4 92 -3 62 10 -18 7 -61 21 -97 30 -52 14 -66 22 -68
39 -2 14 3 23 16 27 16 6 137 -20 186 -40 14 -5 17 -4 12 5 -4 6 -43 29 -87
51 -81 41 -89 49 -66 68 18 15 74 1 161 -42 78 -39 142 -47 153 -21 3 9 -2 42
-11 75 -13 45 -14 65 -6 80 19 36 39 22 60 -45 7 -22 23 -56 36 -75 13 -19 32
-61 44 -93 26 -69 51 -90 185 -153 l98 -47 19 24 c34 44 95 153 119 214 18 48
23 80 23 160 0 92 -2 107 -33 179 -93 216 -330 345 -569 307 -94 -14 -186 -56
-245 -110 l-44 -40 -33 34 c-93 96 -269 142 -440 114z"/>
</g>
</svg>
